<?xml version="1.0" encoding="UTF-8"?>
<svg version="1.1" xmlns="http://www.w3.org/2000/svg" width="1130" height="1130">
<path d="M0 0 C1.04565502 -0.00424107 1.04565502 -0.00424107 2.11243439 -0.00856781 C5.82040258 -0.02345369 9.5283331 -0.03274317 13.23632812 -0.03710938 C16.22018014 -0.04144054 19.20373424 -0.05513606 22.1875 -0.078125 C49.13020534 -0.28122139 75.81135611 1.18926371 102.453125 5.453125 C103.43525467 5.60702698 103.43525467 5.60702698 104.43722534 5.76403809 C164.58629371 15.21904205 221.6031319 33.89863258 276.015625 61.203125 C277.59029541 61.99251465 277.59029541 61.99251465 279.19677734 62.79785156 C321.99214765 84.3839871 362.03396015 112.21367251 397.28515625 144.71875 C398.71502876 146.01974988 400.14958432 147.31667225 401.62426758 148.56665039 C408.15133024 154.11851453 414.15301476 160.18959759 420.19750977 166.25463867 C422.07391975 168.13640774 423.95561469 170.01277238 425.83789062 171.88867188 C431.77609765 177.82324062 437.6142201 183.76837559 443.015625 190.203125 C443.97634637 191.30991342 444.93855857 192.41540974 445.90234375 193.51953125 C469.73145052 221.06799596 490.78258652 250.65909668 509.015625 282.203125 C509.42409668 282.904375 509.83256836 283.605625 510.25341797 284.328125 C550.65526816 354.01265551 574.44399554 431.89050378 583.015625 518.203125 C583.10408691 519.17089874 583.19254883 520.13867249 583.28369141 521.13577271 C583.98938183 529.49467912 584.19168376 537.80119763 584.21875 546.1875 C584.22157738 546.88460335 584.22440475 547.5817067 584.22731781 548.29993439 C584.24220369 552.00790258 584.25149317 555.7158331 584.25585938 559.42382812 C584.26019054 562.40768014 584.27388606 565.39123424 584.296875 568.375 C584.49997139 595.31770534 583.02948629 621.99885611 578.765625 648.640625 C578.66302368 649.29537811 578.56042236 649.95013123 578.45471191 650.62472534 C568.99970795 710.77379371 550.32011742 767.7906319 523.015625 822.203125 C522.48936523 823.25290527 521.96310547 824.30268555 521.42089844 825.38427734 C499.8347629 868.17964765 472.00507749 908.22146015 439.5 943.47265625 C438.19900012 944.90252876 436.90207775 946.33708432 435.65209961 947.81176758 C430.10023547 954.33883024 424.02915241 960.34051476 417.96411133 966.38500977 C416.08234226 968.26141975 414.20597762 970.14311469 412.33007812 972.02539062 C406.39550938 977.96359765 400.45037441 983.8017201 394.015625 989.203125 C392.90883658 990.16384637 391.80334026 991.12605857 390.69921875 992.08984375 C363.15075404 1015.91895052 333.55965332 1036.97008652 302.015625 1055.203125 C301.314375 1055.61159668 300.613125 1056.02006836 299.890625 1056.44091797 C230.20609449 1096.84276816 152.32824622 1120.63149554 66.015625 1129.203125 C65.04785126 1129.29158691 64.08007751 1129.38004883 63.08297729 1129.47119141 C54.72407088 1130.17688183 46.41755237 1130.37918376 38.03125 1130.40625 C37.33414665 1130.40907738 36.6370433 1130.41190475 35.91881561 1130.41481781 C32.21084742 1130.42970369 28.5029169 1130.43899317 24.79492188 1130.44335938 C21.81106986 1130.44769054 18.82751576 1130.46138606 15.84375 1130.484375 C-11.09895534 1130.68747139 -37.78010611 1129.21698629 -64.421875 1124.953125 C-65.40400467 1124.79922302 -65.40400467 1124.79922302 -66.40597534 1124.64221191 C-126.55504371 1115.18720795 -183.5718819 1096.50761742 -237.984375 1069.203125 C-239.03415527 1068.67686523 -240.08393555 1068.15060547 -241.16552734 1067.60839844 C-283.96089765 1046.0222629 -324.00271015 1018.19257749 -359.25390625 985.6875 C-360.68377876 984.38650012 -362.11833432 983.08957775 -363.59301758 981.83959961 C-370.12008024 976.28773547 -376.12176476 970.21665241 -382.16625977 964.15161133 C-384.04266975 962.26984226 -385.92436469 960.39347762 -387.80664062 958.51757812 C-393.74484765 952.58300938 -399.5829701 946.63787441 -404.984375 940.203125 C-405.94509637 939.09633658 -406.90730857 937.99084026 -407.87109375 936.88671875 C-431.70020052 909.33825404 -452.75133652 879.74715332 -470.984375 848.203125 C-471.39284668 847.501875 -471.80131836 846.800625 -472.22216797 846.078125 C-512.62401816 776.39359449 -536.41274554 698.51574622 -544.984375 612.203125 C-545.07283691 611.23535126 -545.16129883 610.26757751 -545.25244141 609.27047729 C-545.95813183 600.91157088 -546.16043376 592.60505237 -546.1875 584.21875 C-546.19032738 583.52164665 -546.19315475 582.8245433 -546.19606781 582.10631561 C-546.21095369 578.39834742 -546.22024317 574.6904169 -546.22460938 570.98242188 C-546.22894054 567.99856986 -546.24263606 565.01501576 -546.265625 562.03125 C-546.46872139 535.08854466 -544.99823629 508.40739389 -540.734375 481.765625 C-540.63177368 481.11087189 -540.52917236 480.45611877 -540.42346191 479.78152466 C-530.96845795 419.63245629 -512.28886742 362.6156181 -484.984375 308.203125 C-484.45811523 307.15334473 -483.93185547 306.10356445 -483.38964844 305.02197266 C-461.8035129 262.22660235 -433.97382749 222.18478985 -401.46875 186.93359375 C-400.16775012 185.50372124 -398.87082775 184.06916568 -397.62084961 182.59448242 C-392.06898547 176.06741976 -385.99790241 170.06573524 -379.93286133 164.02124023 C-378.05109226 162.14483025 -376.17472762 160.26313531 -374.29882812 158.38085938 C-368.36425938 152.44265235 -362.41912441 146.6045299 -355.984375 141.203125 C-354.87758658 140.24240363 -353.77209026 139.28019143 -352.66796875 138.31640625 C-325.11950404 114.48729948 -295.52840332 93.43616348 -263.984375 75.203125 C-263.283125 74.79465332 -262.581875 74.38618164 -261.859375 73.96533203 C-192.17484449 33.56348184 -114.29699622 9.77475446 -27.984375 1.203125 C-27.01660126 1.11466309 -26.04882751 1.02620117 -25.05172729 0.93505859 C-16.69282088 0.22936817 -8.38630237 0.02706624 0 0 Z " fill="#D4EAF6" transform="translate(545.984375,-0.203125)"/>
<path d="M0 0 C30.36 0 60.72 0 92 0 C92.0154612 9.97358986 92.0154612 9.97358986 92.03123474 20.14866638 C92.09975079 64.14501828 92.16932474 108.14136811 92.2436676 152.13771057 C92.24493928 152.89048903 92.24621096 153.64326749 92.24752118 154.41885741 C92.27517743 170.78603294 92.30304078 187.1532081 92.33111694 203.52038291 C92.34488791 211.54898893 92.3586132 219.57759503 92.37231445 227.60620117 C92.37367854 228.40506542 92.37504262 229.20392967 92.37644804 230.02700192 C92.42049355 255.83439071 92.4615336 281.6417832 92.50098413 307.44917939 C92.54160344 334.01062812 92.58531662 360.57207006 92.63282111 387.13350742 C92.63955784 390.90104268 92.64625988 394.668578 92.65294075 398.43611336 C92.65425648 399.17748397 92.65557221 399.91885459 92.6569278 400.68269098 C92.67786147 412.52810331 92.69561584 424.37351829 92.71212531 436.21893752 C92.72886756 448.18122913 92.74909212 460.14351109 92.77266841 472.1057912 C92.78530792 478.56539402 92.79643908 485.02499209 92.80341911 491.48460388 C92.84542185 528.99391154 92.92948668 566.5447576 95.1875 604 C95.24802551 605.02399902 95.30855103 606.04799805 95.37091064 607.10302734 C96.658789 628.27624989 99.37382618 649.10928857 103 670 C103.11706299 670.68060486 103.23412598 671.36120972 103.35473633 672.06243896 C105.57406693 684.92957364 108.11510949 697.52745677 112 710 C112.66889836 712.43688852 113.33553353 714.8743993 114 717.3125 C115.34032286 722.01151424 116.86402121 726.43252501 118.97265625 730.83984375 C119.80989829 732.60028044 120.58445344 734.39041986 121.33984375 736.1875 C127.5787147 750.79933652 135.38654254 764.58907197 146.82421875 775.7578125 C149 778 149 778 149 780 C149.57105469 780.2475 150.14210938 780.495 150.73046875 780.75 C153.35523969 782.19565697 155.15856226 783.91674416 157.3125 786 C173.1317891 800.38955744 192.50710322 809.41707028 213 815 C213.97582031 815.28359375 214.95164062 815.5671875 215.95703125 815.859375 C232.52989253 820.40242509 249.29293847 821.49446408 266.40014648 821.39111328 C269.56342542 821.37499528 272.72543063 821.39108438 275.88867188 821.41015625 C288.55270444 821.42303403 300.57204669 820.39904978 313 818 C313.98863037 817.82694336 314.97726074 817.65388672 315.99584961 817.47558594 C341.37507281 813.00031641 366.99056911 801.95524707 385.81640625 784.04296875 C388 782 388 782 390.5 780.06640625 C395.015229 776.33428728 398.3853129 771.58118098 402 767 C402.52722656 766.36191406 403.05445313 765.72382812 403.59765625 765.06640625 C426.1824634 736.81966973 436.38078055 697.13135392 442.43310547 662.23730469 C442.96783157 659.18370086 443.52376478 656.13441609 444.08273315 653.08517456 C447.75706207 632.92079564 450.31786706 612.85113979 451.63446999 592.39587498 C451.88740176 588.54551357 452.18097785 584.69998058 452.48885155 580.85364437 C454.18262428 558.68731471 454.31036683 536.57935204 454.31667423 514.35762036 C454.32042671 508.85775755 454.33560968 503.35792346 454.34928894 497.858078 C454.37138519 488.36678951 454.38650351 478.87551147 454.39665604 469.38420296 C454.41134468 455.66196905 454.43690878 441.93977165 454.46498732 428.21755939 C454.51027209 405.94526128 454.54697869 383.67295663 454.578125 361.40063477 C454.60837184 339.78636749 454.64274826 318.17211309 454.68261719 296.55786133 C454.68384819 295.88961348 454.68507919 295.22136563 454.6863475 294.53286785 C454.69994363 287.15492454 454.71365138 279.77698145 454.72740483 272.39903843 C454.83069789 216.93270766 454.91838546 161.46636774 455 106 C482.06 106 509.12 106 537 106 C537.05083476 150.75933134 537.09922277 195.51866269 537.12702942 240.27801514 C537.12744359 240.9429757 537.12785776 241.60793625 537.12828448 242.29304713 C537.13726816 256.75265978 537.14557799 271.21227274 537.15319599 285.67188616 C537.15693722 292.76530699 537.16082699 299.85872773 537.16479492 306.95214844 C537.1651872 307.65794016 537.16557948 308.36373188 537.16598364 309.09091124 C537.17871369 331.87023432 537.20120664 354.64953472 537.22889166 377.42884413 C537.25734548 400.883936 537.27569217 424.33901538 537.28174497 447.79412422 C537.28565829 462.877812 537.29805466 477.96143798 537.3237494 493.04510531 C537.339782 502.97099722 537.34436143 512.89685614 537.34050413 522.82276002 C537.33860938 528.52330551 537.34121362 534.2237383 537.35761642 539.924263 C537.49544945 590.42198333 534.51954071 640.79446353 525.1875 690.5 C525.05683136 691.19665771 524.92616272 691.89331543 524.79153442 692.61108398 C521.64954854 709.2876867 518.02021601 725.69264755 512.69775391 741.81958008 C512.1605023 743.49844434 511.64632925 745.18470644 511.14208984 746.8737793 C508.70902795 755.01082838 505.8718519 762.91547217 502.75 770.8125 C502.26547363 772.03936523 501.78094727 773.26623047 501.28173828 774.53027344 C497.64138372 783.63055814 493.69100637 792.39982165 489 801 C488.65259766 801.65323242 488.30519531 802.30646484 487.94726562 802.97949219 C460.62827331 854.30682695 416.39041397 885.89252114 362 904 C357.07518047 905.48374166 352.10998835 906.61824418 347.06201172 907.59228516 C344.85621606 908.02842993 342.66596943 908.5167532 340.47265625 909.01171875 C318.09990052 913.94513718 295.53395955 915.51002659 272.66601562 915.39111328 C269.00092389 915.37500406 265.33693428 915.39109794 261.671875 915.41015625 C240.69689372 915.42932499 219.81836219 913.82442853 199.25 909.5625 C198.18201172 909.34859619 197.11402344 909.13469238 196.01367188 908.91430664 C185.32183317 906.73228218 174.73909492 904.41138541 164.671875 900.1015625 C162.0695995 899.02869453 159.43503304 898.11009717 156.77514648 897.19213867 C124.29634876 885.73830218 92.73410579 863.63304387 72 836 C71.57267578 835.44231934 71.14535156 834.88463867 70.70507812 834.31005859 C61.49726902 822.28439868 53.86671625 809.66712888 46.75 796.3125 C46.34966553 795.56516602 45.94933105 794.81783203 45.53686523 794.04785156 C25.71884274 756.22801349 17.12906392 713.68741616 10 672 C9.75243595 670.58771455 9.5047923 669.17544306 9.25708008 667.76318359 C7.44079253 657.29038837 6.04623311 646.81987543 4.9375 636.25 C4.85317719 635.45962341 4.76885437 634.66924683 4.68197632 633.85491943 C3.02533804 618.26158501 1.80573675 602.66184973 1 587 C0.93882594 585.82520896 0.93882594 585.82520896 0.87641603 584.62668478 C0.1150623 569.68309067 -0.14135037 554.78366513 -0.12025452 539.82252502 C-0.1206918 537.47628723 -0.12156957 535.13004948 -0.12284368 532.78381199 C-0.12505788 526.40528307 -0.12110999 520.02677125 -0.11606562 513.6482445 C-0.11166475 507.45521429 -0.11302861 501.26218379 -0.11374746 495.0691525 C-0.11505445 482.4186688 -0.11174644 469.76819037 -0.10573006 457.11770821 C-0.09979576 444.60752906 -0.09596064 432.0973521 -0.09487724 419.58717155 C-0.0948085 418.80685298 -0.09473976 418.02653441 -0.09466894 417.22256982 C-0.09433057 413.25909054 -0.0940292 409.29561126 -0.09374207 405.33213197 C-0.09164639 377.32078506 -0.08492233 349.30944101 -0.07543945 321.2980957 C-0.06624253 294.09985367 -0.05916505 266.90161242 -0.05493164 239.70336914 C-0.05480011 238.86374671 -0.05466859 238.02412428 -0.05453308 237.15905874 C-0.05321446 228.72657244 -0.05193866 220.29408614 -0.05069422 211.86159983 C-0.04815858 194.68645531 -0.04533733 177.51131083 -0.04234314 160.33616638 C-0.04220585 159.5466283 -0.04206856 158.75709021 -0.04192711 157.94362673 C-0.03273964 105.29574989 -0.01666635 52.64787493 0 0 Z " fill="#9F1C0D" transform="translate(295,107)"/>
<path d="M0 0 C12.11006595 9.35313694 17.33289102 23.08848465 19.83157349 37.82798767 C20.43264168 42.73870387 20.67611092 47.61929565 20.87060547 52.56079102 C20.91271589 53.61264115 20.95482632 54.66449129 20.99821281 55.74821568 C21.44879813 67.97860466 21.46028249 80.20429521 21.44921875 92.44140625 C21.45001158 94.40741417 21.45081368 96.37342212 21.45206791 98.3394298 C21.45707219 106.27421052 21.45231252 114.20896767 21.44517899 122.14374542 C21.44112296 126.75466381 21.43930588 131.36558168 21.43771362 135.97650146 C21.41423241 196.43431627 21.1871049 256.89171489 20.92613149 317.34890634 C20.88908619 325.95174507 20.85403013 334.55459047 20.81964111 343.15744019 C20.77710791 353.75137091 20.73073082 364.34527757 20.67972833 374.93917102 C20.65340631 380.41132684 20.62843495 385.88347905 20.6072979 391.35565758 C20.5876178 396.42287232 20.56346158 401.49004653 20.53590751 406.55722439 C20.52666457 408.39056266 20.5189507 410.22390947 20.51298928 412.05726135 C20.37161564 454.19041431 20.37161564 454.19041431 6.06640625 469.5390625 C-2.84697919 477.86345771 -13.43497697 482.50479224 -25.6328125 482.1328125 C-35.61641668 481.00789935 -43.76858138 476.26359636 -50.43359375 468.83984375 C-60.40204451 456.15499015 -62.61032767 441.22260936 -63.18041992 425.4675293 C-63.22085765 424.39422961 -63.26129538 423.32092993 -63.30295849 422.21510601 C-63.94138795 404.45941452 -64.346377 386.69620688 -64.734375 368.93359375 C-64.75655161 367.92240612 -64.77872822 366.9112185 -64.80157685 365.86938882 C-65.91948964 314.43748966 -65.95706002 263.01136961 -65.88418972 211.56957638 C-65.87246099 202.88093385 -65.86845458 194.19231213 -65.86889648 185.50366211 C-65.87285234 92.47292922 -65.87285234 92.47292922 -65.296875 54.55859375 C-65.28184622 53.40404882 -65.26681744 52.2495039 -65.25133324 51.05997276 C-65.20819938 47.92617245 -65.15235974 44.79291495 -65.09106445 41.65942383 C-65.08010302 40.79949892 -65.06914158 39.93957401 -65.05784798 39.05359077 C-64.74446708 25.91306279 -61.64222222 13.18772133 -52.44140625 3.3125 C-48.86458051 0.21258436 -44.87471766 -2.04650731 -40.68359375 -4.2109375 C-40.03519531 -4.55382812 -39.38679687 -4.89671875 -38.71875 -5.25 C-26.58606532 -10.73920618 -10.71956236 -6.98578221 0 0 Z " fill="#9F1C0D" transform="translate(652.68359375,148.2109375)"/>
<path d="M0 0 C8.71564399 6.02501905 13.40752938 14.67886001 16.625 24.61328125 C17.41780386 29.30669417 17.76433169 33.84143786 17.81445312 38.59765625 C17.82276626 39.26886883 17.83107939 39.94008141 17.83964443 40.63163376 C17.8662655 42.87549075 17.8862617 45.11935611 17.90625 47.36328125 C17.92415042 48.99229338 17.94243692 50.62130131 17.96107483 52.25030518 C18.01113962 56.74520485 18.05507253 61.24014535 18.09752274 65.73512268 C18.13499038 69.65974221 18.17500967 73.58433446 18.21487904 77.50893021 C18.28997154 84.9103707 18.36345999 92.31182384 18.43309021 99.71331787 C18.53481263 110.52319076 18.64135975 121.33294384 18.76611328 132.14257812 C19.51037568 196.77607273 19.7970792 261.41246644 19.89981747 326.04994583 C19.90356545 328.39425916 19.90732705 330.73857246 19.91110229 333.08288574 C19.91296234 334.24177614 19.91482239 335.40066654 19.91673881 336.59467483 C19.93084771 344.75980862 19.95530452 352.92487203 19.98416138 361.08996582 C20.01947763 371.14094171 20.0402015 381.19182436 20.04292715 391.24286389 C20.0447028 396.45209385 20.05292853 401.6611045 20.07833099 406.8702774 C20.10166202 411.7084196 20.1058704 416.54621092 20.0956887 421.38439512 C20.09522046 423.13729019 20.10143558 424.89020361 20.11528981 426.64304399 C20.22736019 441.6633525 18.57516229 454.99945363 9.625 467.61328125 C9.0475 468.50015625 8.47 469.38703125 7.875 470.30078125 C-0.05221517 478.44819684 -8.8891013 482.53843453 -20.1875 482.80078125 C-31.22660815 482.61954216 -41.0090422 479.00011933 -49.1875 471.36328125 C-66.21656123 452.74538417 -64.67590966 426.77816237 -64.9375 403.23828125 C-64.99739234 398.62624393 -65.0623878 394.01428986 -65.12890625 389.40234375 C-65.14523605 388.22148193 -65.16156586 387.04062012 -65.1783905 385.82397461 C-65.30609533 377.30756801 -65.53226631 368.79645993 -65.80018616 360.28360367 C-66.39660792 341.31189733 -66.72393757 322.3429264 -66.9375 303.36328125 C-66.94784019 302.46755276 -66.95818039 301.57182426 -66.96883392 300.64895248 C-67.43839749 259.68389143 -67.48455623 218.71737515 -67.49711341 177.75010979 C-67.49873182 172.59449526 -67.50164558 167.43888403 -67.50582594 162.28327096 C-67.53283517 128.54027931 -67.51520735 94.79532196 -67.10299301 61.05437279 C-67.06985887 58.32378313 -67.04290942 55.59325108 -67.02173233 52.86254311 C-66.98952705 49.12571472 -66.93862807 45.38960895 -66.88232422 41.65307617 C-66.8763258 40.57237791 -66.87032738 39.49167965 -66.86414719 38.37823296 C-66.65060003 27.20846081 -63.54486809 18.84327159 -57.375 9.61328125 C-56.7975 8.72640625 -56.22 7.83953125 -55.625 6.92578125 C-40.54572674 -8.57236072 -18.44022116 -10.76690545 0 0 Z " fill="#9F1D0E" transform="translate(519.375,147.38671875)"/>
<path d="M0 0 C66.33 0 132.66 0 201 0 C194.12517301 18.33287196 194.12517301 18.33287196 191.46875 24.6328125 C191.0057827 25.74223457 191.0057827 25.74223457 190.53346252 26.87406921 C189.87051665 28.46262254 189.20644101 30.0507048 188.54129028 31.63833618 C186.6748313 36.09555248 184.81961667 40.55744187 182.96484375 45.01953125 C182.56808945 45.97391586 182.17133514 46.92830048 181.76255798 47.91160583 C176.80480746 59.8549723 171.93469352 71.83404176 167.0625 83.8125 C166.13039192 86.10327996 165.19826303 88.39405145 164.26611328 90.68481445 C162.87604363 94.10116437 161.48604467 97.51754296 160.09625244 100.93400574 C155.75387609 111.60788268 151.4046259 122.27893817 147.04586792 132.94613647 C146.27525171 134.83265686 145.50515705 136.71939038 144.73562622 138.60635376 C143.6766374 141.20295601 142.61589013 143.79883312 141.5546875 146.39453125 C141.25150101 147.13896484 140.94831451 147.88339844 140.63594055 148.65039062 C138.51991995 153.81812444 136.2705668 158.89122471 134 164 C113.54 164 93.08 164 72 164 C69.751875 158.92625 67.50375 153.8525 65.1875 148.625 C59.01758231 134.72289952 52.7815821 120.85197266 46.5 107 C40.26959027 93.25971581 34.08795613 79.49954889 27.97647095 65.70596313 C21.65804379 51.446552 15.26413906 37.22167662 8.84936523 23.00537109 C8.48099548 22.18844284 8.11262573 21.37151459 7.73309326 20.52983093 C7.04793703 19.01053008 6.36223145 17.49147678 5.67584229 15.97273254 C5.06708551 14.62278099 4.46067857 13.27176645 3.85702515 11.91952515 C3.27905246 10.62500874 2.69527465 9.33307064 2.10610962 8.04360962 C0.82218787 5.17468499 0 3.18199406 0 0 Z " fill="#392A98" transform="translate(464,662)"/>
<path d="M0 0 C27.72 0 55.44 0 84 0 C84 28.05 84 56.1 84 85 C56.28 85 28.56 85 0 85 C0 56.95 0 28.9 0 0 Z " fill="#392A98" transform="translate(750,106)"/>
<path d="M0 0 C17.82 0 35.64 0 54 0 C50.64201989 6.71596022 47.30310997 12.93890047 43.25 19.1875 C38.92978908 25.91445578 34.72686143 32.68543556 30.76660156 39.6315918 C29.89775772 41.12018054 28.9560795 42.56588075 28 44 C27.34 44 26.68 44 26 44 C24.78588867 42.3137207 24.78588867 42.3137207 23.41796875 39.92578125 C22.90387451 39.03979248 22.38978027 38.15380371 21.86010742 37.2409668 C21.03216675 35.79137573 21.03216675 35.79137573 20.1875 34.3125 C19.02286841 32.30350637 17.85614201 30.2957259 16.6875 28.2890625 C16.08421875 27.25297852 15.4809375 26.21689453 14.859375 25.14941406 C11.33522335 19.18019711 7.6482325 13.31173189 3.96362305 7.44067383 C3.44324463 6.60818115 2.92286621 5.77568848 2.38671875 4.91796875 C1.69388794 3.81618286 1.69388794 3.81618286 0.98706055 2.69213867 C0 1 0 1 0 0 Z " fill="#3A2B98" transform="translate(541,835)"/>
<path d="M0 0 C25.08 0 50.16 0 76 0 C76 3.63 76 7.26 76 11 C50.92 11 25.84 11 0 11 C0 7.37 0 3.74 0 0 Z " fill="#3A2B99" transform="translate(480,875)"/>
</svg>
